<svg width="50" height="50" viewBox="0 0 50 50" fill="none" xmlns="http://www.w3.org/2000/svg">
<path d="M22.8535 4.16666H18.6869C8.27018 4.16666 4.10352 8.33332 4.10352 18.75V31.25C4.10352 41.6667 8.27018 45.8333 18.6869 45.8333H31.1869C41.6035 45.8333 45.7702 41.6667 45.7702 31.25V27.0833" stroke="white" stroke-width="3" stroke-linecap="round" stroke-linejoin="round"/>
<path d="M45.5827 7.41663C43.0202 13.8125 36.5827 22.5208 31.2077 26.8333L27.916 29.4583C27.4993 29.7708 27.0827 30.0208 26.6035 30.2083C26.6035 29.8958 26.5827 29.5833 26.541 29.25C26.3535 27.8541 25.7285 26.5416 24.6035 25.4375C23.4577 24.2916 22.0827 23.6458 20.666 23.4583C20.3327 23.4375 19.9993 23.4166 19.666 23.4375C19.8535 22.9166 20.1243 22.4375 20.4785 22.0416L23.1035 18.75C27.416 13.375 36.1452 6.89579 42.5202 4.33329C43.4993 3.95829 44.4577 4.24996 45.0618 4.85413C45.6868 5.47913 45.9785 6.43746 45.5827 7.41663Z" stroke="white" stroke-width="3" stroke-linecap="round" stroke-linejoin="round"/>
<path d="M26.6255 30.1875C26.6255 32.0208 25.9172 33.7708 24.6047 35.1041C23.5839 36.125 22.2089 36.8333 20.563 37.0416L16.4589 37.4791C14.2297 37.7291 12.313 35.8333 12.563 33.5625L13.0005 29.4583C13.3964 25.8125 16.438 23.4791 19.688 23.4166C20.0214 23.3958 20.3547 23.4166 20.688 23.4375C22.1047 23.625 23.4797 24.2708 24.6255 25.4166C25.7505 26.5416 26.3755 27.8333 26.563 29.2291C26.6047 29.5625 26.6255 29.8958 26.6255 30.1875Z" stroke="white" stroke-width="3" stroke-linecap="round" stroke-linejoin="round"/>
<path d="M32.9583 24.9582C32.9583 20.604 29.4375 17.0624 25.0625 17.0624" stroke="white" stroke-width="3" stroke-linecap="round" stroke-linejoin="round"/>
</svg>
