<svg width="50" height="50" viewBox="0 0 50 50" fill="none" xmlns="http://www.w3.org/2000/svg">
<path d="M6.25 45.8333H43.75" stroke="#086AD7" stroke-width="3" stroke-linecap="round" stroke-linejoin="round"/>
<path d="M11.6666 17.458H8.33333C7.1875 17.458 6.25 18.3955 6.25 19.5413V37.4997C6.25 38.6455 7.1875 39.583 8.33333 39.583H11.6666C12.8124 39.583 13.7499 38.6455 13.7499 37.4997V19.5413C13.7499 18.3955 12.8124 17.458 11.6666 17.458Z" stroke="#086AD7" stroke-width="3" stroke-linecap="round" stroke-linejoin="round"/>
<path d="M26.6666 10.8123H23.3333C22.1875 10.8123 21.25 11.7498 21.25 12.8956V37.4998C21.25 38.6456 22.1875 39.5831 23.3333 39.5831H26.6666C27.8124 39.5831 28.7499 38.6456 28.7499 37.4998V12.8956C28.7499 11.7498 27.8124 10.8123 26.6666 10.8123Z" stroke="#086AD7" stroke-width="3" stroke-linecap="round" stroke-linejoin="round"/>
<path d="M41.6666 4.16658H38.3333C37.1875 4.16658 36.25 5.10408 36.25 6.24991V37.4999C36.25 38.6457 37.1875 39.5832 38.3333 39.5832H41.6666C42.8124 39.5832 43.7499 38.6457 43.7499 37.4999V6.24991C43.7499 5.10408 42.8124 4.16658 41.6666 4.16658Z" stroke="#086AD7" stroke-width="3" stroke-linecap="round" stroke-linejoin="round"/>
</svg>
