<svg width="50" height="50" viewBox="0 0 50 50" fill="none" xmlns="http://www.w3.org/2000/svg">
<path d="M41.6667 29.1667C43.9679 29.1667 45.8333 27.3012 45.8333 25C45.8333 22.6988 43.9679 20.8333 41.6667 20.8333C39.3655 20.8333 37.5 22.6988 37.5 25C37.5 27.3012 39.3655 29.1667 41.6667 29.1667Z" stroke="#086AD7" stroke-width="3" stroke-linecap="round" stroke-linejoin="round"/>
<path d="M41.6667 12.5C43.9679 12.5 45.8333 10.6345 45.8333 8.33332C45.8333 6.03214 43.9679 4.16666 41.6667 4.16666C39.3655 4.16666 37.5 6.03214 37.5 8.33332C37.5 10.6345 39.3655 12.5 41.6667 12.5Z" stroke="#086AD7" stroke-width="3" stroke-linecap="round" stroke-linejoin="round"/>
<path d="M41.6667 45.8333C43.9679 45.8333 45.8333 43.9679 45.8333 41.6667C45.8333 39.3655 43.9679 37.5 41.6667 37.5C39.3655 37.5 37.5 39.3655 37.5 41.6667C37.5 43.9679 39.3655 45.8333 41.6667 45.8333Z" stroke="#086AD7" stroke-width="3" stroke-linecap="round" stroke-linejoin="round"/>
<path d="M8.33268 29.1667C10.6339 29.1667 12.4993 27.3012 12.4993 25C12.4993 22.6988 10.6339 20.8333 8.33268 20.8333C6.0315 20.8333 4.16602 22.6988 4.16602 25C4.16602 27.3012 6.0315 29.1667 8.33268 29.1667Z" stroke="#086AD7" stroke-width="3" stroke-linecap="round" stroke-linejoin="round"/>
<path d="M12.5 25H37.5" stroke="#086AD7" stroke-width="3" stroke-linecap="round" stroke-linejoin="round"/>
<path d="M37.4993 8.33334H29.166C24.9993 8.33334 22.916 10.4167 22.916 14.5833V35.4167C22.916 39.5833 24.9993 41.6667 29.166 41.6667H37.4993" stroke="#086AD7" stroke-width="3" stroke-linecap="round" stroke-linejoin="round"/>
</svg>
