<svg width="83" height="102" viewBox="0 0 83 102" fill="none" xmlns="http://www.w3.org/2000/svg">
<path d="M80.139 101.509C81.7194 101.509 83.0006 100.228 83.0006 98.6478C83.0006 97.0674 81.7194 95.7862 80.139 95.7862C78.5585 95.7862 77.2773 97.0674 77.2773 98.6478C77.2773 100.228 78.5585 101.509 80.139 101.509Z" fill="#086AD7" fill-opacity="0.2"/>
<path d="M80.139 82.3496C81.7194 82.3496 83.0006 81.0685 83.0006 79.488C83.0006 77.9076 81.7194 76.6264 80.139 76.6264C78.5585 76.6264 77.2773 77.9076 77.2773 79.488C77.2773 81.0685 78.5585 82.3496 80.139 82.3496Z" fill="#086AD7" fill-opacity="0.2"/>
<path d="M80.139 63.1898C81.7194 63.1898 83.0006 61.9086 83.0006 60.3282C83.0006 58.7477 81.7194 57.4666 80.139 57.4666C78.5585 57.4666 77.2773 58.7477 77.2773 60.3282C77.2773 61.9086 78.5585 63.1898 80.139 63.1898Z" fill="#086AD7" fill-opacity="0.2"/>
<path d="M77.2773 41.1813C77.2773 42.7682 78.5651 44.0429 80.139 44.0429C81.7129 44.0429 83.0006 42.7552 83.0006 41.1813C83.0006 39.6074 81.7129 38.3196 80.139 38.3196C78.5651 38.3196 77.2773 39.6074 77.2773 41.1813Z" fill="#086AD7" fill-opacity="0.2"/>
<path d="M77.2773 22.0214C77.2773 23.6083 78.5651 24.883 80.139 24.883C81.7129 24.883 83.0006 23.5953 83.0006 22.0214C83.0006 20.4475 81.7129 19.1598 80.139 19.1598C78.5651 19.1598 77.2773 20.4475 77.2773 22.0214Z" fill="#086AD7" fill-opacity="0.2"/>
<path d="M80.139 5.72324C81.7194 5.72324 83.0006 4.44205 83.0006 2.86162C83.0006 1.28119 81.7194 0 80.139 0C78.5585 0 77.2773 1.28119 77.2773 2.86162C77.2773 4.44205 78.5585 5.72324 80.139 5.72324Z" fill="#086AD7" fill-opacity="0.2"/>
<path d="M64.6858 101.509C66.2663 101.509 67.5475 100.228 67.5475 98.6478C67.5475 97.0674 66.2663 95.7862 64.6858 95.7862C63.1054 95.7862 61.8242 97.0674 61.8242 98.6478C61.8242 100.228 63.1054 101.509 64.6858 101.509Z" fill="#086AD7" fill-opacity="0.2"/>
<path d="M64.6858 82.3496C66.2663 82.3496 67.5475 81.0685 67.5475 79.488C67.5475 77.9076 66.2663 76.6264 64.6858 76.6264C63.1054 76.6264 61.8242 77.9076 61.8242 79.488C61.8242 81.0685 63.1054 82.3496 64.6858 82.3496Z" fill="#086AD7" fill-opacity="0.2"/>
<path d="M64.6858 63.1898C66.2663 63.1898 67.5475 61.9086 67.5475 60.3282C67.5475 58.7477 66.2663 57.4666 64.6858 57.4666C63.1054 57.4666 61.8242 58.7477 61.8242 60.3282C61.8242 61.9086 63.1054 63.1898 64.6858 63.1898Z" fill="#086AD7" fill-opacity="0.2"/>
<path d="M61.8242 41.1813C61.8242 42.7682 63.1119 44.0429 64.6858 44.0429C66.2597 44.0429 67.5475 42.7552 67.5475 41.1813C67.5475 39.6074 66.2597 38.3196 64.6858 38.3196C63.1119 38.3196 61.8242 39.6074 61.8242 41.1813Z" fill="#086AD7" fill-opacity="0.2"/>
<path d="M61.8242 22.0214C61.8242 23.6083 63.1119 24.883 64.6858 24.883C66.2597 24.883 67.5475 23.5953 67.5475 22.0214C67.5475 20.4475 66.2597 19.1598 64.6858 19.1598C63.1119 19.1598 61.8242 20.4475 61.8242 22.0214Z" fill="#086AD7" fill-opacity="0.2"/>
<path d="M64.6858 5.72324C66.2663 5.72324 67.5475 4.44205 67.5475 2.86162C67.5475 1.28119 66.2663 0 64.6858 0C63.1054 0 61.8242 1.28119 61.8242 2.86162C61.8242 4.44205 63.1054 5.72324 64.6858 5.72324Z" fill="#086AD7" fill-opacity="0.2"/>
<path d="M46.3574 98.6478C46.3574 100.235 47.6452 101.509 49.219 101.509C50.7929 101.509 52.0807 100.222 52.0807 98.6478C52.0807 97.0739 50.7929 95.7862 49.219 95.7862C47.6452 95.7862 46.3574 97.0739 46.3574 98.6478Z" fill="#086AD7" fill-opacity="0.2"/>
<path d="M46.3574 79.488C46.3574 81.0749 47.6452 82.3496 49.219 82.3496C50.7929 82.3496 52.0807 81.0619 52.0807 79.488C52.0807 77.9141 50.7929 76.6264 49.219 76.6264C47.6452 76.6264 46.3574 77.9141 46.3574 79.488Z" fill="#086AD7" fill-opacity="0.2"/>
<path d="M46.3574 60.3282C46.3574 61.9151 47.6452 63.1898 49.219 63.1898C50.7929 63.1898 52.0807 61.9021 52.0807 60.3282C52.0807 58.7543 50.7929 57.4666 49.219 57.4666C47.6452 57.4666 46.3574 58.7543 46.3574 60.3282Z" fill="#086AD7" fill-opacity="0.2"/>
<path d="M46.3574 41.1813C46.3574 42.7682 47.6452 44.0429 49.219 44.0429C50.7929 44.0429 52.0807 42.7552 52.0807 41.1813C52.0807 39.6074 50.7929 38.3196 49.219 38.3196C47.6452 38.3196 46.3574 39.6074 46.3574 41.1813Z" fill="#086AD7" fill-opacity="0.2"/>
<path d="M46.3574 22.0214C46.3574 23.6083 47.6452 24.883 49.219 24.883C50.7929 24.883 52.0807 23.5953 52.0807 22.0214C52.0807 20.4475 50.7929 19.1598 49.219 19.1598C47.6452 19.1598 46.3574 20.4475 46.3574 22.0214Z" fill="#086AD7" fill-opacity="0.2"/>
<path d="M46.3574 2.86162C46.3574 4.44852 47.6452 5.72324 49.219 5.72324C50.7929 5.72324 52.0807 4.43551 52.0807 2.86162C52.0807 1.28773 50.7929 0 49.219 0C47.6452 0 46.3574 1.28773 46.3574 2.86162Z" fill="#086AD7" fill-opacity="0.2"/>
<path d="M33.7796 101.509C35.36 101.509 36.6412 100.228 36.6412 98.6478C36.6412 97.0674 35.36 95.7862 33.7796 95.7862C32.1992 95.7862 30.918 97.0674 30.918 98.6478C30.918 100.228 32.1992 101.509 33.7796 101.509Z" fill="#086AD7" fill-opacity="0.2"/>
<path d="M33.7796 82.3496C35.36 82.3496 36.6412 81.0685 36.6412 79.488C36.6412 77.9076 35.36 76.6264 33.7796 76.6264C32.1992 76.6264 30.918 77.9076 30.918 79.488C30.918 81.0685 32.1992 82.3496 33.7796 82.3496Z" fill="#086AD7" fill-opacity="0.2"/>
<path d="M33.7796 63.1898C35.36 63.1898 36.6412 61.9086 36.6412 60.3282C36.6412 58.7477 35.36 57.4666 33.7796 57.4666C32.1992 57.4666 30.918 58.7477 30.918 60.3282C30.918 61.9086 32.1992 63.1898 33.7796 63.1898Z" fill="#086AD7" fill-opacity="0.2"/>
<path d="M30.9062 41.1813C30.9062 42.7682 32.194 44.0429 33.7679 44.0429C35.3418 44.0429 36.6295 42.7552 36.6295 41.1813C36.6295 39.6074 35.3418 38.3196 33.7679 38.3196C32.194 38.3196 30.9062 39.6074 30.9062 41.1813Z" fill="#086AD7" fill-opacity="0.2"/>
<path d="M30.9062 22.0214C30.9062 23.6083 32.194 24.883 33.7679 24.883C35.3418 24.883 36.6295 23.5953 36.6295 22.0214C36.6295 20.4475 35.3418 19.1598 33.7679 19.1598C32.194 19.1598 30.9062 20.4475 30.9062 22.0214Z" fill="#086AD7" fill-opacity="0.2"/>
<path d="M33.7796 5.72324C35.36 5.72324 36.6412 4.44205 36.6412 2.86162C36.6412 1.28119 35.36 0 33.7796 0C32.1992 0 30.918 1.28119 30.918 2.86162C30.918 4.44205 32.1992 5.72324 33.7796 5.72324Z" fill="#086AD7" fill-opacity="0.2"/>
<path d="M18.3147 101.509C19.8952 101.509 21.1764 100.228 21.1764 98.6478C21.1764 97.0674 19.8952 95.7862 18.3147 95.7862C16.7343 95.7862 15.4531 97.0674 15.4531 98.6478C15.4531 100.228 16.7343 101.509 18.3147 101.509Z" fill="#086AD7" fill-opacity="0.2"/>
<path d="M18.3147 82.3496C19.8952 82.3496 21.1764 81.0685 21.1764 79.488C21.1764 77.9076 19.8952 76.6264 18.3147 76.6264C16.7343 76.6264 15.4531 77.9076 15.4531 79.488C15.4531 81.0685 16.7343 82.3496 18.3147 82.3496Z" fill="#086AD7" fill-opacity="0.2"/>
<path d="M18.3147 63.1898C19.8952 63.1898 21.1764 61.9086 21.1764 60.3282C21.1764 58.7477 19.8952 57.4666 18.3147 57.4666C16.7343 57.4666 15.4531 58.7477 15.4531 60.3282C15.4531 61.9086 16.7343 63.1898 18.3147 63.1898Z" fill="#086AD7" fill-opacity="0.2"/>
<path d="M15.4531 41.1813C15.4531 42.7682 16.7409 44.0429 18.3147 44.0429C19.8886 44.0429 21.1764 42.7552 21.1764 41.1813C21.1764 39.6074 19.8886 38.3196 18.3147 38.3196C16.7409 38.3196 15.4531 39.6074 15.4531 41.1813Z" fill="#086AD7" fill-opacity="0.2"/>
<path d="M15.4531 22.0214C15.4531 23.6083 16.7409 24.883 18.3147 24.883C19.8886 24.883 21.1764 23.5953 21.1764 22.0214C21.1764 20.4475 19.8886 19.1598 18.3147 19.1598C16.7409 19.1598 15.4531 20.4475 15.4531 22.0214Z" fill="#086AD7" fill-opacity="0.2"/>
<path d="M18.3147 5.72324C19.8952 5.72324 21.1764 4.44205 21.1764 2.86162C21.1764 1.28119 19.8952 0 18.3147 0C16.7343 0 15.4531 1.28119 15.4531 2.86162C15.4531 4.44205 16.7343 5.72324 18.3147 5.72324Z" fill="#086AD7" fill-opacity="0.2"/>
<path d="M0 98.6478C0 100.235 1.28773 101.509 2.86162 101.509C4.43551 101.509 5.72324 100.222 5.72324 98.6478C5.72324 97.0739 4.43551 95.7862 2.86162 95.7862C1.28773 95.7862 0 97.0739 0 98.6478Z" fill="#086AD7" fill-opacity="0.2"/>
<path d="M0 79.488C0 81.0749 1.28773 82.3496 2.86162 82.3496C4.43551 82.3496 5.72324 81.0619 5.72324 79.488C5.72324 77.9141 4.43551 76.6264 2.86162 76.6264C1.28773 76.6264 0 77.9141 0 79.488Z" fill="#086AD7" fill-opacity="0.2"/>
<path d="M0 60.3282C0 61.9151 1.28773 63.1898 2.86162 63.1898C4.43551 63.1898 5.72324 61.9021 5.72324 60.3282C5.72324 58.7543 4.43551 57.4666 2.86162 57.4666C1.28773 57.4666 0 58.7543 0 60.3282Z" fill="#086AD7" fill-opacity="0.2"/>
<path d="M0 41.1813C0 42.7682 1.28773 44.0429 2.86162 44.0429C4.43551 44.0429 5.72324 42.7552 5.72324 41.1813C5.72324 39.6074 4.43551 38.3196 2.86162 38.3196C1.28773 38.3196 0 39.6074 0 41.1813Z" fill="#086AD7" fill-opacity="0.2"/>
<path d="M0 22.0214C0 23.6083 1.28773 24.883 2.86162 24.883C4.43551 24.883 5.72324 23.5953 5.72324 22.0214C5.72324 20.4475 4.43551 19.1598 2.86162 19.1598C1.28773 19.1598 0 20.4475 0 22.0214Z" fill="#086AD7" fill-opacity="0.2"/>
<path d="M0 2.86162C0 4.44852 1.28773 5.72324 2.86162 5.72324C4.43551 5.72324 5.72324 4.43551 5.72324 2.86162C5.72324 1.28773 4.44852 0 2.86162 0C1.27472 0 0 1.28773 0 2.86162Z" fill="#086AD7" fill-opacity="0.2"/>
</svg>
