<svg width="50" height="50" viewBox="0 0 50 50" fill="none" xmlns="http://www.w3.org/2000/svg">
<path d="M24.9994 45.8333C36.5053 45.8333 45.8327 36.5059 45.8327 25C45.8327 13.4941 36.5053 4.16666 24.9994 4.16666C13.4934 4.16666 4.16602 13.4941 4.16602 25C4.16602 36.5059 13.4934 45.8333 24.9994 45.8333Z" stroke="#086AD7" stroke-width="3" stroke-linecap="round" stroke-linejoin="round"/>
<path d="M16.6667 6.25H18.75C14.6875 18.4167 14.6875 31.5833 18.75 43.75H16.6667" stroke="#086AD7" stroke-width="3" stroke-linecap="round" stroke-linejoin="round"/>
<path d="M31.25 6.25C35.3125 18.4167 35.3125 31.5833 31.25 43.75" stroke="#086AD7" stroke-width="3" stroke-linecap="round" stroke-linejoin="round"/>
<path d="M6.25 33.3333V31.25C18.4167 35.3125 31.5833 35.3125 43.75 31.25V33.3333" stroke="#086AD7" stroke-width="3" stroke-linecap="round" stroke-linejoin="round"/>
<path d="M6.25 18.7502C18.4167 14.6877 31.5833 14.6877 43.75 18.7502" stroke="#086AD7" stroke-width="3" stroke-linecap="round" stroke-linejoin="round"/>
</svg>
