<svg width="1920" height="347" viewBox="0 0 1920 347" fill="none" xmlns="http://www.w3.org/2000/svg">
<g opacity="0.2">
<path d="M1443.81 219.891C1599.59 235.837 1624.12 241.97 1696.49 227.251L1738.19 899.711L208.653 899.71C200.475 721.448 192.235 485.416 208.653 464.738C231.282 436.238 293.157 417.113 367.406 429.113C425.591 438.517 453.288 439.345 537.847 410.792C622.406 382.24 652.031 319.238 824.394 366.901C996.756 414.565 1081.03 328.21 1135.94 286.259C1190.86 244.308 1288.04 203.946 1443.81 219.891Z" fill="url(#paint0_linear_13_52)"/>
<g filter="url(#filter0_f_13_52)">
<path d="M1443.81 219.891C1599.59 235.837 1624.12 241.97 1696.49 227.251L1738.19 899.711L208.653 899.71C200.475 721.448 192.235 503.416 208.653 482.738C231.282 454.238 293.157 435.113 367.406 447.113C425.591 456.517 453.288 457.345 537.847 428.792C622.406 400.24 652.031 337.238 824.394 384.901C996.756 432.565 1081.03 328.21 1135.94 286.259C1190.86 244.308 1288.04 203.946 1443.81 219.891Z" fill="url(#paint1_linear_13_52)"/>
</g>
<g filter="url(#filter1_f_13_52)">
<path d="M1443.81 219.891C1599.59 235.837 1624.12 241.97 1696.49 227.251L1738.19 899.711L208.653 899.71C200.475 721.448 192.235 503.416 208.653 482.738C231.282 454.238 293.157 435.113 367.406 447.113C425.591 456.517 453.288 457.345 537.847 428.792C622.406 400.24 652.031 337.238 824.394 384.901C996.756 432.565 1081.03 328.21 1135.94 286.259C1190.86 244.308 1288.04 203.946 1443.81 219.891Z" fill="url(#paint2_linear_13_52)"/>
</g>
<g filter="url(#filter2_f_13_52)">
<path d="M1443.82 177.891C1599.59 193.836 1624.12 199.969 1696.49 185.25L1738.2 899.71L208.653 899.71C200.476 721.448 204.235 533.415 220.653 512.738C243.283 484.238 305.157 465.113 379.407 477.113C437.591 486.516 465.288 487.345 549.848 458.792C634.407 430.24 614.257 380.842 836.394 414.901C1058.53 448.96 1081.03 316.21 1135.94 274.259C1190.86 232.308 1288.04 161.945 1443.82 177.891Z" fill="url(#paint3_linear_13_52)"/>
</g>
<g filter="url(#filter3_f_13_52)">
<path d="M1443.81 171.891C1599.59 139.836 1624.12 133.969 1696.49 119.25L1738.19 899.71L208.653 899.71C205.345 827.613 202.028 799.065 200.335 789.264C198.654 785.767 198.952 781.253 200.335 789.264C201.683 792.067 204.302 794.217 208.653 788.738C231.282 760.238 293.157 741.113 367.406 753.113C425.591 762.516 453.288 763.344 537.847 734.792C622.406 706.239 652.031 643.238 824.394 690.901C996.756 738.564 1081.03 364.21 1135.94 322.259L1137.42 321.134C1192.63 278.947 1291.8 203.172 1443.81 171.891Z" fill="url(#paint4_linear_13_52)"/>
</g>
<g filter="url(#filter4_f_13_52)">
<path d="M1398.43 468.405C1449.95 454.913 1548.08 446.327 1690.36 497.843L1690.36 955.355L157.139 955.355L134.433 681.012C93.3897 684.306 111.725 679.301 133.834 673.774L134.433 681.012C154.111 679.433 187.439 675.947 240.546 669.696C449.18 645.139 484.807 591.88 535.486 543.359C593.135 488.163 668.621 554.265 758.161 554.265C807.361 554.265 829.302 545.679 889.404 497.843C949.506 450.006 994.89 386.224 1132.27 445.1C1269.64 503.976 1346.92 481.897 1398.43 468.405Z" fill="url(#paint5_linear_13_52)"/>
</g>
<g filter="url(#filter5_f_13_52)">
<path d="M1398.43 468.405C1449.95 454.913 1548.08 446.327 1690.36 497.843L1690.36 955.355L157.139 955.355L133.994 699.548C93.521 708.27 111.804 703.282 133.834 697.774L133.994 699.548C153.614 695.32 187.042 687.87 240.546 675.696C445.384 629.086 498.964 588.068 549.643 539.546C607.292 484.35 668.621 573.89 758.161 573.89C807.361 573.89 829.302 545.679 889.404 497.843C949.506 450.006 994.89 386.224 1132.27 445.1C1269.64 503.976 1346.92 481.897 1398.43 468.405Z" fill="url(#paint6_linear_13_52)"/>
</g>
<g filter="url(#filter6_f_13_52)">
<path d="M1398.43 468.405C1449.95 454.913 1548.08 446.327 1690.36 497.843L1690.36 955.355L157.139 955.355L133.994 699.548C93.521 708.27 111.804 703.282 133.834 697.774L133.994 699.548C153.614 695.32 187.042 687.87 240.546 675.696C445.384 629.086 501.417 597.88 552.096 549.359C609.745 494.163 668.621 554.265 758.161 554.265C807.361 554.265 829.302 545.679 889.404 497.843C949.506 450.006 994.89 386.224 1132.27 445.1C1269.64 503.976 1346.92 481.897 1398.43 468.405Z" fill="url(#paint7_linear_13_52)"/>
</g>
<path d="M333.762 745.391C516.848 633.504 702.848 701.703 927.128 640.126C1151.41 578.548 1222.58 549.807 1387.53 558.089C1552.47 566.371 1604.54 522.006 1686.79 457.144C1769.05 392.282 1610.81 923.107 1610.81 923.107L313.97 783.406L333.762 745.391Z" fill="#DE82FF"/>
<path opacity="0.3" d="M339.141 744.959L339.327 744.585L339.678 744.361C430.515 686.491 527.814 675.687 630.072 671.079C646.116 670.356 662.28 669.785 678.561 669.21C766.131 666.119 857.097 662.907 950.966 635.238C1174.22 569.432 1263.39 564.507 1428.61 569.71C1511 572.304 1564.84 562.284 1608.14 543.418C1649.51 525.396 1681.37 499.267 1719.45 468.032C1721.26 466.542 1723.09 465.041 1724.94 463.528C1730.08 459.317 1734.62 457.159 1738.56 457.363C1742.69 457.577 1745.64 460.321 1747.62 464.557C1749.58 468.761 1750.73 474.688 1751.25 481.947C1751.77 489.233 1751.66 497.986 1751.03 507.918C1748.49 547.617 1737.5 606.705 1724 667.768C1710.5 728.858 1694.46 792.017 1681.8 839.898C1675.47 863.84 1669.98 883.965 1666.08 898.104C1664.13 905.174 1662.57 910.748 1661.5 914.555C1660.97 916.458 1660.55 917.919 1660.28 918.905C1660.14 919.398 1660.03 919.772 1659.96 920.023L1659.88 920.307L1659.86 920.378L1659.85 920.396C1659.85 920.4 1659.85 920.403 1658.41 919.992L1659.85 920.403L1659.51 921.611L1658.26 921.484L321.254 785.497L319.098 785.278L320.063 783.337L339.141 744.959Z" fill="#DE82FF" stroke="#FFF1BD" stroke-width="3"/>
<path d="M302.457 717.504C390.506 725.382 671.595 671.234 923.503 659.075C1147.78 597.497 1234.72 567.167 1387.53 558.089C1552.47 566.372 1612.9 485.61 1695.16 420.748C1777.42 355.886 1610.81 923.107 1610.81 923.107L282.665 755.519L302.457 717.504Z" fill="#DE82FF"/>
<g filter="url(#filter8_f_13_52)">
<path d="M301.483 713.128C389.532 721.005 573.896 702.268 923.504 659.075C1147.78 597.497 1234.72 567.167 1387.53 558.089C1555.22 539.458 1598.52 427.616 1680.78 362.754C1763.03 297.892 1610.81 923.107 1610.81 923.107L295.776 866.535L301.483 713.128Z" fill="#DE82FF"/>
</g>
<g filter="url(#filter9_f_13_52)">
<path d="M398.838 855.28C486.887 863.157 596.554 788.273 946.163 745.08C1170.44 683.503 1318.1 714.69 1470.9 705.612C1638.59 686.981 1659.86 552.448 1742.11 487.585C1824.37 422.723 1694.19 1070.63 1694.19 1070.63L390.481 988.253L398.838 855.28Z" fill="#3B00E3"/>
</g>
</g>
<defs>
<filter id="filter0_f_13_52" x="176.684" y="193.831" width="1584.01" height="728.38" filterUnits="userSpaceOnUse" color-interpolation-filters="sRGB">
<feFlood flood-opacity="0" result="BackgroundImageFix"/>
<feBlend mode="normal" in="SourceGraphic" in2="BackgroundImageFix" result="shape"/>
<feGaussianBlur stdDeviation="11.25" result="effect1_foregroundBlur_13_52"/>
</filter>
<filter id="filter1_f_13_52" x="176.684" y="193.831" width="1584.01" height="728.38" filterUnits="userSpaceOnUse" color-interpolation-filters="sRGB">
<feFlood flood-opacity="0" result="BackgroundImageFix"/>
<feBlend mode="normal" in="SourceGraphic" in2="BackgroundImageFix" result="shape"/>
<feGaussianBlur stdDeviation="11.25" result="effect1_foregroundBlur_13_52"/>
</filter>
<filter id="filter2_f_13_52" x="151.98" y="123.082" width="1638.71" height="829.129" filterUnits="userSpaceOnUse" color-interpolation-filters="sRGB">
<feFlood flood-opacity="0" result="BackgroundImageFix"/>
<feBlend mode="normal" in="SourceGraphic" in2="BackgroundImageFix" result="shape"/>
<feGaussianBlur stdDeviation="26.25" result="effect1_foregroundBlur_13_52"/>
</filter>
<filter id="filter3_f_13_52" x="80.6836" y="0.750244" width="1776.01" height="1017.46" filterUnits="userSpaceOnUse" color-interpolation-filters="sRGB">
<feFlood flood-opacity="0" result="BackgroundImageFix"/>
<feBlend mode="normal" in="SourceGraphic" in2="BackgroundImageFix" result="shape"/>
<feGaussianBlur stdDeviation="59.25" result="effect1_foregroundBlur_13_52"/>
</filter>
<filter id="filter4_f_13_52" x="-7.26055" y="304.178" width="1814.88" height="768.439" filterUnits="userSpaceOnUse" color-interpolation-filters="sRGB">
<feFlood flood-opacity="0" result="BackgroundImageFix"/>
<feBlend mode="normal" in="SourceGraphic" in2="BackgroundImageFix" result="shape"/>
<feGaussianBlur stdDeviation="58.6313" result="effect1_foregroundBlur_13_52"/>
</filter>
<filter id="filter5_f_13_52" x="-91.2081" y="220.231" width="1982.78" height="936.335" filterUnits="userSpaceOnUse" color-interpolation-filters="sRGB">
<feFlood flood-opacity="0" result="BackgroundImageFix"/>
<feBlend mode="normal" in="SourceGraphic" in2="BackgroundImageFix" result="shape"/>
<feGaussianBlur stdDeviation="100.605" result="effect1_foregroundBlur_13_52"/>
</filter>
<filter id="filter6_f_13_52" x="26.5734" y="338.012" width="1747.21" height="700.772" filterUnits="userSpaceOnUse" color-interpolation-filters="sRGB">
<feFlood flood-opacity="0" result="BackgroundImageFix"/>
<feBlend mode="normal" in="SourceGraphic" in2="BackgroundImageFix" result="shape"/>
<feGaussianBlur stdDeviation="41.7143" result="effect1_foregroundBlur_13_52"/>
</filter>
<filter id="filter8_f_13_52" x="225.822" y="288.082" width="1549.29" height="704.978" filterUnits="userSpaceOnUse" color-interpolation-filters="sRGB">
<feFlood flood-opacity="0" result="BackgroundImageFix"/>
<feBlend mode="normal" in="SourceGraphic" in2="BackgroundImageFix" result="shape"/>
<feGaussianBlur stdDeviation="34.9765" result="effect1_foregroundBlur_13_52"/>
</filter>
<filter id="filter9_f_13_52" x="219.216" y="311.757" width="1721.41" height="930.137" filterUnits="userSpaceOnUse" color-interpolation-filters="sRGB">
<feFlood flood-opacity="0" result="BackgroundImageFix"/>
<feBlend mode="normal" in="SourceGraphic" in2="BackgroundImageFix" result="shape"/>
<feGaussianBlur stdDeviation="85.632" result="effect1_foregroundBlur_13_52"/>
</filter>
<linearGradient id="paint0_linear_13_52" x1="1683.65" y1="265.897" x2="830.384" y2="741.124" gradientUnits="userSpaceOnUse">
<stop stop-color="#FFDC82"/>
<stop offset="1" stop-color="#FF419C"/>
</linearGradient>
<linearGradient id="paint1_linear_13_52" x1="1683.65" y1="265.897" x2="830.384" y2="741.124" gradientUnits="userSpaceOnUse">
<stop stop-color="#FFDC82"/>
<stop offset="1" stop-color="#FF419C"/>
</linearGradient>
<linearGradient id="paint2_linear_13_52" x1="1683.65" y1="265.897" x2="830.384" y2="741.124" gradientUnits="userSpaceOnUse">
<stop stop-color="#FFDC82"/>
<stop offset="1" stop-color="#FF419C"/>
</linearGradient>
<linearGradient id="paint3_linear_13_52" x1="1683.83" y1="228.104" x2="809.603" y2="686.029" gradientUnits="userSpaceOnUse">
<stop stop-color="#FFDC82"/>
<stop offset="1" stop-color="#FF419C"/>
</linearGradient>
<linearGradient id="paint4_linear_13_52" x1="1683.65" y1="175.858" x2="780.498" y2="616.301" gradientUnits="userSpaceOnUse">
<stop stop-color="#FFDC82"/>
<stop offset="1" stop-color="#FF419C"/>
</linearGradient>
<linearGradient id="paint5_linear_13_52" x1="1660.92" y1="596.348" x2="429.59" y2="742.111" gradientUnits="userSpaceOnUse">
<stop stop-color="#FF34DF"/>
<stop offset="1" stop-color="#8627FF"/>
</linearGradient>
<linearGradient id="paint6_linear_13_52" x1="1660.92" y1="596.348" x2="429.59" y2="742.111" gradientUnits="userSpaceOnUse">
<stop stop-color="#FF34DF"/>
<stop offset="1" stop-color="#8627FF"/>
</linearGradient>
<linearGradient id="paint7_linear_13_52" x1="1660.92" y1="596.348" x2="429.59" y2="742.111" gradientUnits="userSpaceOnUse">
<stop stop-color="#FF34DF"/>
<stop offset="1" stop-color="#8627FF"/>
</linearGradient>
</defs>
</svg>
