<svg width="1909" height="359" viewBox="0 0 1909 359" fill="none" xmlns="http://www.w3.org/2000/svg">
<g opacity="0.2">
<path d="M373.011 139.832C217.236 123.886 192.705 117.753 120.337 132.472L78.6314 -539.988L1608.17 -539.987C1616.35 -361.725 1624.59 -125.693 1608.17 -105.015C1585.54 -76.515 1523.67 -57.39 1449.42 -69.39C1391.24 -78.7936 1363.54 -79.6218 1278.98 -51.0693C1194.42 -22.5168 1164.79 40.485 992.432 -7.17838C820.07 -54.8418 735.795 31.5126 680.882 73.4639C625.969 115.415 528.787 155.777 373.011 139.832Z" fill="url(#paint0_linear_13_38)"/>
<g filter="url(#filter0_f_13_38)">
<path d="M373.011 139.832C217.236 123.886 192.705 117.753 120.337 132.472L78.6314 -539.988L1608.17 -539.987C1616.35 -361.725 1624.59 -143.693 1608.17 -123.015C1585.54 -94.515 1523.67 -75.39 1449.42 -87.39C1391.24 -96.7936 1363.54 -97.6218 1278.98 -69.0693C1194.42 -40.5168 1164.79 22.485 992.432 -25.1784C820.07 -72.8418 735.795 31.5126 680.882 73.4639C625.969 115.415 528.787 155.777 373.011 139.832Z" fill="url(#paint1_linear_13_38)"/>
</g>
<g filter="url(#filter1_f_13_38)">
<path d="M373.011 139.832C217.236 123.886 192.705 117.753 120.337 132.472L78.6314 -539.988L1608.17 -539.987C1616.35 -361.725 1624.59 -143.693 1608.17 -123.015C1585.54 -94.515 1523.67 -75.39 1449.42 -87.39C1391.24 -96.7936 1363.54 -97.6218 1278.98 -69.0693C1194.42 -40.5168 1164.79 22.485 992.432 -25.1784C820.07 -72.8418 735.795 31.5126 680.882 73.4639C625.969 115.415 528.787 155.777 373.011 139.832Z" fill="url(#paint2_linear_13_38)"/>
</g>
<g filter="url(#filter2_f_13_38)">
<path d="M373.011 181.832C217.236 165.887 192.704 159.754 120.336 174.473L78.6309 -539.987L1608.17 -539.987C1616.35 -361.725 1612.59 -173.692 1596.17 -153.015C1573.54 -124.515 1511.67 -105.39 1437.42 -117.39C1379.23 -126.793 1351.54 -127.622 1266.98 -99.069C1182.42 -70.5165 1202.57 -21.1192 980.432 -55.1781C758.295 -89.237 735.794 43.5129 680.882 85.4641C625.969 127.415 528.786 197.778 373.011 181.832Z" fill="url(#paint3_linear_13_38)"/>
</g>
<g filter="url(#filter3_f_13_38)">
<path d="M373.011 187.832C217.236 219.887 192.705 225.754 120.337 240.473L78.6314 -539.987L1608.17 -539.987C1611.48 -467.89 1614.8 -439.342 1616.49 -429.541C1618.17 -426.044 1617.87 -421.53 1616.49 -429.541C1615.14 -432.344 1612.52 -434.494 1608.17 -429.015C1585.54 -400.515 1523.67 -381.39 1449.42 -393.39C1391.24 -402.793 1363.54 -403.621 1278.98 -375.069C1194.42 -346.516 1164.79 -283.515 992.432 -331.178C820.07 -378.841 735.795 -4.48697 680.882 37.4643L679.41 38.5889C624.198 80.7756 525.027 156.551 373.011 187.832Z" fill="url(#paint4_linear_13_38)"/>
</g>
<g filter="url(#filter4_f_13_38)">
<path d="M418.393 -108.682C366.877 -95.1896 268.751 -86.6036 126.468 -138.12L126.468 -595.632L1659.69 -595.632L1682.39 -321.289C1723.44 -324.583 1705.1 -319.578 1682.99 -314.051L1682.39 -321.289C1662.72 -319.71 1629.39 -316.224 1576.28 -309.973C1367.65 -285.416 1332.02 -232.157 1281.34 -183.636C1223.69 -128.44 1148.21 -194.542 1058.67 -194.542C1009.46 -194.542 987.524 -185.956 927.422 -138.12C867.32 -90.2833 821.936 -26.5012 684.56 -85.3769C547.183 -144.253 469.909 -122.174 418.393 -108.682Z" fill="url(#paint5_linear_13_38)"/>
</g>
<g filter="url(#filter5_f_13_38)">
<path d="M418.393 -108.682C366.877 -95.1896 268.751 -86.6036 126.468 -138.12L126.468 -595.632L1659.69 -595.632L1682.83 -339.825C1723.31 -348.547 1705.02 -343.559 1682.99 -338.051L1682.83 -339.825C1663.21 -335.597 1629.78 -328.147 1576.28 -315.973C1371.44 -269.363 1317.86 -228.345 1267.18 -179.823C1209.53 -124.627 1148.21 -214.167 1058.67 -214.167C1009.46 -214.167 987.524 -185.956 927.422 -138.12C867.32 -90.2833 821.936 -26.5012 684.56 -85.3769C547.183 -144.253 469.909 -122.174 418.393 -108.682Z" fill="url(#paint6_linear_13_38)"/>
</g>
<g filter="url(#filter6_f_13_38)">
<path d="M418.393 -108.682C366.877 -95.1896 268.751 -86.6036 126.468 -138.12L126.468 -595.632L1659.69 -595.632L1682.83 -339.825C1723.31 -348.547 1705.02 -343.559 1682.99 -338.051L1682.83 -339.825C1663.21 -335.597 1629.78 -328.147 1576.28 -315.973C1371.44 -269.363 1315.41 -238.157 1264.73 -189.636C1207.08 -134.44 1148.21 -194.542 1058.67 -194.542C1009.46 -194.542 987.524 -185.956 927.422 -138.12C867.32 -90.2833 821.936 -26.5012 684.56 -85.3769C547.183 -144.253 469.909 -122.174 418.393 -108.682Z" fill="url(#paint7_linear_13_38)"/>
</g>
<path d="M1483.06 -385.668C1299.98 -273.781 1113.98 -341.98 889.698 -280.403C665.419 -218.825 594.244 -190.084 429.3 -198.366C264.356 -206.648 212.291 -162.283 130.034 -97.4212C47.7768 -32.559 206.014 -563.384 206.014 -563.384L1502.86 -423.683L1483.06 -385.668Z" fill="#DE82FF"/>
<path opacity="0.3" d="M1477.68 -385.236L1477.5 -384.862L1477.15 -384.638C1386.31 -326.768 1289.01 -315.964 1186.75 -311.356C1170.71 -310.633 1154.55 -310.062 1138.26 -309.487C1050.7 -306.396 959.729 -303.184 865.861 -275.515C642.611 -209.709 553.437 -204.784 388.216 -209.987C305.825 -212.581 251.988 -202.561 208.683 -183.695C167.315 -165.673 135.46 -139.544 97.3791 -108.309C95.5628 -106.819 93.7323 -105.318 91.8859 -103.805C86.7455 -99.5935 82.2034 -97.4361 78.2622 -97.6402C74.1363 -97.8539 71.1889 -100.598 69.2112 -104.834C67.2484 -109.038 66.0967 -114.965 65.577 -122.224C65.0553 -129.51 65.1632 -138.263 65.7977 -148.195C68.3339 -187.894 79.3253 -246.982 92.8253 -308.045C106.331 -369.135 122.369 -432.294 135.028 -480.175C141.358 -504.117 146.844 -524.242 150.748 -538.381C152.7 -545.451 154.257 -551.025 155.325 -554.832C155.859 -556.735 156.272 -558.196 156.55 -559.182C156.69 -559.675 156.796 -560.049 156.867 -560.3L156.947 -560.584L156.968 -560.655L156.973 -560.673C156.974 -560.677 156.975 -560.68 158.417 -560.269L156.975 -560.68L157.319 -561.888L158.569 -561.761L1495.57 -425.774L1497.73 -425.555L1496.76 -423.614L1477.68 -385.236Z" fill="#DE82FF" stroke="#FFF1BD" stroke-width="3"/>
<path d="M1514.37 -357.781C1426.32 -365.659 1145.23 -311.511 893.323 -299.352C669.044 -237.774 582.102 -207.444 429.301 -198.366C264.357 -206.649 203.925 -125.887 121.668 -61.025C39.4109 3.83717 206.014 -563.384 206.014 -563.384L1534.16 -395.796L1514.37 -357.781Z" fill="#DE82FF"/>
<g filter="url(#filter8_f_13_38)">
<path d="M1515.34 -353.405C1427.29 -361.282 1242.93 -342.545 893.322 -299.352C669.043 -237.774 582.101 -207.444 429.3 -198.366C261.608 -179.735 218.306 -67.8933 136.049 -3.03119C53.7917 61.8309 206.014 -563.384 206.014 -563.384L1521.05 -506.812L1515.34 -353.405Z" fill="#DE82FF"/>
</g>
<g filter="url(#filter9_f_13_38)">
<path d="M1417.99 -495.557C1329.94 -503.434 1220.27 -428.55 870.664 -385.357C646.384 -323.78 498.727 -354.967 345.926 -345.889C178.234 -327.258 156.969 -192.725 74.7122 -127.862C-7.54478 -63.0003 122.639 -710.907 122.639 -710.907L1426.35 -628.53L1417.99 -495.557Z" fill="#3B00E3"/>
</g>
</g>
<defs>
<filter id="filter0_f_13_38" x="56.1309" y="-562.488" width="1584.01" height="728.38" filterUnits="userSpaceOnUse" color-interpolation-filters="sRGB">
<feFlood flood-opacity="0" result="BackgroundImageFix"/>
<feBlend mode="normal" in="SourceGraphic" in2="BackgroundImageFix" result="shape"/>
<feGaussianBlur stdDeviation="11.25" result="effect1_foregroundBlur_13_38"/>
</filter>
<filter id="filter1_f_13_38" x="56.1309" y="-562.488" width="1584.01" height="728.38" filterUnits="userSpaceOnUse" color-interpolation-filters="sRGB">
<feFlood flood-opacity="0" result="BackgroundImageFix"/>
<feBlend mode="normal" in="SourceGraphic" in2="BackgroundImageFix" result="shape"/>
<feGaussianBlur stdDeviation="11.25" result="effect1_foregroundBlur_13_38"/>
</filter>
<filter id="filter2_f_13_38" x="26.1309" y="-592.487" width="1638.71" height="829.129" filterUnits="userSpaceOnUse" color-interpolation-filters="sRGB">
<feFlood flood-opacity="0" result="BackgroundImageFix"/>
<feBlend mode="normal" in="SourceGraphic" in2="BackgroundImageFix" result="shape"/>
<feGaussianBlur stdDeviation="26.25" result="effect1_foregroundBlur_13_38"/>
</filter>
<filter id="filter3_f_13_38" x="-39.8691" y="-658.487" width="1776.01" height="1017.46" filterUnits="userSpaceOnUse" color-interpolation-filters="sRGB">
<feFlood flood-opacity="0" result="BackgroundImageFix"/>
<feBlend mode="normal" in="SourceGraphic" in2="BackgroundImageFix" result="shape"/>
<feGaussianBlur stdDeviation="59.25" result="effect1_foregroundBlur_13_38"/>
</filter>
<filter id="filter4_f_13_38" x="9.20625" y="-712.895" width="1814.88" height="768.44" filterUnits="userSpaceOnUse" color-interpolation-filters="sRGB">
<feFlood flood-opacity="0" result="BackgroundImageFix"/>
<feBlend mode="normal" in="SourceGraphic" in2="BackgroundImageFix" result="shape"/>
<feGaussianBlur stdDeviation="58.6313" result="effect1_foregroundBlur_13_38"/>
</filter>
<filter id="filter5_f_13_38" x="-74.7413" y="-796.842" width="1982.78" height="936.335" filterUnits="userSpaceOnUse" color-interpolation-filters="sRGB">
<feFlood flood-opacity="0" result="BackgroundImageFix"/>
<feBlend mode="normal" in="SourceGraphic" in2="BackgroundImageFix" result="shape"/>
<feGaussianBlur stdDeviation="100.605" result="effect1_foregroundBlur_13_38"/>
</filter>
<filter id="filter6_f_13_38" x="43.0402" y="-679.061" width="1747.21" height="700.772" filterUnits="userSpaceOnUse" color-interpolation-filters="sRGB">
<feFlood flood-opacity="0" result="BackgroundImageFix"/>
<feBlend mode="normal" in="SourceGraphic" in2="BackgroundImageFix" result="shape"/>
<feGaussianBlur stdDeviation="41.7143" result="effect1_foregroundBlur_13_38"/>
</filter>
<filter id="filter8_f_13_38" x="41.7112" y="-633.337" width="1549.29" height="704.978" filterUnits="userSpaceOnUse" color-interpolation-filters="sRGB">
<feFlood flood-opacity="0" result="BackgroundImageFix"/>
<feBlend mode="normal" in="SourceGraphic" in2="BackgroundImageFix" result="shape"/>
<feGaussianBlur stdDeviation="34.9765" result="effect1_foregroundBlur_13_38"/>
</filter>
<filter id="filter9_f_13_38" x="-123.803" y="-882.171" width="1721.41" height="930.137" filterUnits="userSpaceOnUse" color-interpolation-filters="sRGB">
<feFlood flood-opacity="0" result="BackgroundImageFix"/>
<feBlend mode="normal" in="SourceGraphic" in2="BackgroundImageFix" result="shape"/>
<feGaussianBlur stdDeviation="85.632" result="effect1_foregroundBlur_13_38"/>
</filter>
<linearGradient id="paint0_linear_13_38" x1="133.18" y1="93.8256" x2="986.442" y2="-381.401" gradientUnits="userSpaceOnUse">
<stop stop-color="#FFDC82"/>
<stop offset="1" stop-color="#FF419C"/>
</linearGradient>
<linearGradient id="paint1_linear_13_38" x1="133.18" y1="93.8256" x2="986.442" y2="-381.401" gradientUnits="userSpaceOnUse">
<stop stop-color="#FFDC82"/>
<stop offset="1" stop-color="#FF419C"/>
</linearGradient>
<linearGradient id="paint2_linear_13_38" x1="133.18" y1="93.8256" x2="986.442" y2="-381.401" gradientUnits="userSpaceOnUse">
<stop stop-color="#FFDC82"/>
<stop offset="1" stop-color="#FF419C"/>
</linearGradient>
<linearGradient id="paint3_linear_13_38" x1="132.991" y1="131.619" x2="1007.22" y2="-326.306" gradientUnits="userSpaceOnUse">
<stop stop-color="#FFDC82"/>
<stop offset="1" stop-color="#FF419C"/>
</linearGradient>
<linearGradient id="paint4_linear_13_38" x1="133.18" y1="183.865" x2="1036.33" y2="-256.578" gradientUnits="userSpaceOnUse">
<stop stop-color="#FFDC82"/>
<stop offset="1" stop-color="#FF419C"/>
</linearGradient>
<linearGradient id="paint5_linear_13_38" x1="155.905" y1="-236.625" x2="1387.24" y2="-382.388" gradientUnits="userSpaceOnUse">
<stop stop-color="#FF34DF"/>
<stop offset="1" stop-color="#8627FF"/>
</linearGradient>
<linearGradient id="paint6_linear_13_38" x1="155.905" y1="-236.625" x2="1387.24" y2="-382.388" gradientUnits="userSpaceOnUse">
<stop stop-color="#FF34DF"/>
<stop offset="1" stop-color="#8627FF"/>
</linearGradient>
<linearGradient id="paint7_linear_13_38" x1="155.905" y1="-236.625" x2="1387.24" y2="-382.388" gradientUnits="userSpaceOnUse">
<stop stop-color="#FF34DF"/>
<stop offset="1" stop-color="#8627FF"/>
</linearGradient>
</defs>
</svg>
