<svg width="137" height="35" viewBox="0 0 137 35" fill="none" xmlns="http://www.w3.org/2000/svg">
<path d="M56.5049 10.414H49.2228V29.1267H44.704V10.414H37.4219V6.17285H56.5049V10.414Z" fill="#211E3B"/>
<path d="M58.4363 19.3498H65.5884C65.5453 18.4648 65.2202 17.7202 64.6135 17.1159C64.0284 16.5116 63.1612 16.2094 62.0124 16.2094C60.9721 16.2094 60.1268 16.5331 59.4766 17.1806C58.8264 17.8281 58.4798 18.5512 58.4363 19.3498ZM66.011 23.4938L69.62 24.5621C69.1864 26.0298 68.3302 27.2385 67.0517 28.1881C65.7944 29.1378 64.2234 29.6126 62.3379 29.6126C60.0403 29.6126 58.0897 28.8464 56.4858 27.314C54.8823 25.76 54.0801 23.688 54.0801 21.098C54.0801 18.6375 54.8603 16.6303 56.4207 15.0763C57.9812 13.5007 59.8237 12.7129 61.9478 12.7129C64.4185 12.7129 66.3471 13.4467 67.7344 14.9144C69.1429 16.3821 69.8471 18.4001 69.8471 20.9685C69.8471 21.1412 69.8366 21.3354 69.815 21.5513C69.815 21.7671 69.815 21.9398 69.815 22.0693L69.7825 22.2959H58.3388C58.3823 23.3319 58.7944 24.1952 59.5746 24.8859C60.3544 25.5766 61.2866 25.9219 62.37 25.9219C64.2125 25.9219 65.4258 25.1125 66.011 23.4938Z" fill="#211E3B"/>
<path d="M79.4616 16.695C78.3128 16.695 77.3485 17.0943 76.5683 17.8929C75.7881 18.6915 75.398 19.7814 75.398 21.1628C75.398 22.5441 75.7881 23.6448 76.5683 24.465C77.3701 25.2636 78.3453 25.6629 79.4941 25.6629C80.5129 25.6629 81.3256 25.4039 81.9323 24.8859C82.539 24.3463 82.9511 23.7096 83.1677 22.9758L86.9713 24.2384C86.5812 25.7061 85.7359 26.9687 84.4356 28.0263C83.1352 29.0838 81.4882 29.6126 79.4941 29.6126C77.11 29.6126 75.1054 28.8141 73.4799 27.2169C71.876 25.5981 71.0742 23.5801 71.0742 21.1628C71.0742 18.7238 71.8654 16.7058 73.4474 15.1086C75.0513 13.5115 77.0234 12.7129 79.3641 12.7129C81.4012 12.7129 83.0702 13.2417 84.3705 14.2993C85.6709 15.3353 86.5052 16.5979 86.8738 18.0871L83.0052 19.3821C82.485 17.5907 81.3037 16.695 79.4616 16.695Z" fill="#211E3B"/>
<path d="M93.4995 19.7706V29.127H89.1758V5.6875H93.4995V14.5259C94.4748 13.3604 95.9162 12.7776 97.8233 12.7776C99.7738 12.7776 101.248 13.3712 102.245 14.5582C103.263 15.7238 103.772 17.2346 103.772 19.0907V29.127H99.4487V19.8354C99.4487 18.8857 99.1996 18.1195 98.701 17.5367C98.2244 16.954 97.4876 16.6626 96.4904 16.6626C95.6021 16.6626 94.8869 16.954 94.3448 17.5367C93.8246 18.1195 93.543 18.8641 93.4995 19.7706Z" fill="#211E3B"/>
<path d="M109.462 19.7386H118.012C117.969 18.5731 117.579 17.6234 116.841 16.8896C116.105 16.1342 115.064 15.7565 113.721 15.7565C112.507 15.7565 111.51 16.1558 110.73 16.9543C109.95 17.7313 109.527 18.6594 109.462 19.7386ZM118.467 23.7855L121.1 24.692C120.645 26.138 119.8 27.3251 118.564 28.2532C117.329 29.1597 115.834 29.613 114.078 29.613C111.89 29.613 110.026 28.8683 108.487 27.3791C106.97 25.8683 106.211 23.8394 106.211 21.2926C106.211 18.9184 106.948 16.9543 108.422 15.4003C109.895 13.8463 111.651 13.0693 113.688 13.0693C116.051 13.0693 117.893 13.814 119.215 15.3032C120.537 16.7709 121.198 18.7458 121.198 21.2278C121.198 21.6163 121.176 21.9401 121.133 22.1991H109.364C109.386 23.5804 109.841 24.7135 110.73 25.5985C111.64 26.4834 112.756 26.9258 114.078 26.9258C116.311 26.9258 117.774 25.879 118.467 23.7855Z" fill="#211E3B"/>
<path d="M121.688 29.1271L127.507 21.1952L121.883 13.5547H125.589L129.425 19.0261L133.196 13.5547H136.804L131.245 21.1952C131.57 21.6053 132.535 22.9219 134.139 25.1449C135.743 27.368 136.696 28.6954 136.999 29.1271H133.326L129.295 23.3967L125.329 29.1271H121.688Z" fill="#211E3B"/>
<path fill-rule="evenodd" clip-rule="evenodd" d="M33.6493 24.5765C34.611 22.4127 35.1453 20.0185 35.1453 17.5C35.1453 16.8258 35.107 16.1605 35.0324 15.5062C32.7854 14.1243 30.2902 12.8227 28.2466 12.3486C24.5863 11.4993 20.5129 12.0253 20.3237 15.1561C20.1621 17.8305 21.5353 18.9326 26.671 20.7765C29.0775 21.6405 31.4689 23.1182 33.6493 24.5765ZM28.1879 31.4473C25.2388 33.6769 21.5609 35 17.5726 35C7.86754 35 0 27.165 0 17.5C0 7.83501 7.86754 0 17.5726 0C22.4316 0 26.8301 1.964 30.0111 5.13835C25.6367 4.67263 19.8301 4.62989 16.0635 6.84893C12.3139 9.05804 10.1353 13.0803 10.7207 17.0366C11.4096 21.6932 18.199 25.7122 22.5365 27.7801C24.4496 28.6923 26.4302 30.0616 28.1879 31.4473Z" fill="#086AD7"/>
</svg>
