<svg width="50" height="50" viewBox="0 0 50 50" fill="none" xmlns="http://www.w3.org/2000/svg">
<path d="M17.7077 39.5208H16.666C8.33268 39.5208 4.16602 37.4374 4.16602 27.0208V16.6041C4.16602 8.27076 8.33268 4.1041 16.666 4.1041H33.3327C41.666 4.1041 45.8327 8.27076 45.8327 16.6041V27.0208C45.8327 35.3541 41.666 39.5208 33.3327 39.5208H32.291C31.6452 39.5208 31.0202 39.8333 30.6244 40.3541L27.4994 44.5208C26.1244 46.3541 23.8743 46.3541 22.4993 44.5208L19.3743 40.3541C19.041 39.8958 18.291 39.5208 17.7077 39.5208Z" stroke="#086AD7" stroke-width="3" stroke-miterlimit="10" stroke-linecap="round" stroke-linejoin="round"/>
<path d="M16.6667 18.1249L12.5 22.2916L16.6667 26.4582" stroke="#086AD7" stroke-width="3" stroke-miterlimit="10" stroke-linecap="round" stroke-linejoin="round"/>
<path d="M33.334 18.1249L37.5007 22.2916L33.334 26.4582" stroke="#086AD7" stroke-width="3" stroke-miterlimit="10" stroke-linecap="round" stroke-linejoin="round"/>
<path d="M27.0827 17.4375L22.916 27.1459" stroke="#086AD7" stroke-width="3" stroke-miterlimit="10" stroke-linecap="round" stroke-linejoin="round"/>
</svg>
