<svg width="12" height="15" viewBox="0 0 12 15" fill="none" xmlns="http://www.w3.org/2000/svg">
<path d="M2.52734 8.96875C1.14193 8.65885 0.485677 7.58333 0.558594 5.74219C0.595052 4.46615 1.08724 3.38151 2.03516 2.48828C2.98307 1.57682 4.06771 1.05729 5.28906 0.929688C6.82031 0.747396 8.16927 1.01172 9.33594 1.72266C10.5208 2.41536 11.2044 3.42708 11.3867 4.75781C11.5326 5.8151 11.4505 6.83594 11.1406 7.82031C10.8307 8.80469 10.293 9.60677 9.52734 10.2266C8.77995 10.8464 7.90495 11.1107 6.90234 11.0195C6.70182 11.0013 6.51042 10.9648 6.32812 10.9102C6.16406 10.8372 6.02734 10.7734 5.91797 10.7188C5.80859 10.6458 5.66276 10.5456 5.48047 10.418C5.29818 10.2904 5.15234 10.1992 5.04297 10.1445C4.80599 11.3294 4.53255 12.3047 4.22266 13.0703C3.93099 13.8359 3.48438 14.4375 2.88281 14.875C2.82812 14.2005 2.80078 13.6445 2.80078 13.207C2.80078 12.7695 2.84635 12.2591 2.9375 11.6758C3.04688 11.0924 3.14714 10.6094 3.23828 10.2266C3.34766 9.84375 3.47526 9.37891 3.62109 8.83203C3.76693 8.28516 3.8763 7.82943 3.94922 7.46484C3.76693 7.11849 3.67578 6.71745 3.67578 6.26172C3.67578 5.78776 3.7487 5.36849 3.89453 5.00391C4.05859 4.62109 4.30469 4.32943 4.63281 4.12891C4.97917 3.92839 5.35286 3.90104 5.75391 4.04688C6.13672 4.19271 6.34635 4.47526 6.38281 4.89453C6.41927 5.29557 6.35547 5.74219 6.19141 6.23438C6.02734 6.70833 5.8724 7.18229 5.72656 7.65625C5.58073 8.13021 5.5625 8.54948 5.67188 8.91406C5.78125 9.27865 6.07292 9.50651 6.54688 9.59766C7.1849 9.72526 7.75 9.54297 8.24219 9.05078C8.7526 8.55859 9.09896 7.95703 9.28125 7.24609C9.48177 6.51693 9.53646 5.76042 9.44531 4.97656C9.35417 4.17448 9.10807 3.5638 8.70703 3.14453C8.23307 2.67057 7.67708 2.36068 7.03906 2.21484C6.40104 2.06901 5.78125 2.09635 5.17969 2.29688C4.57812 2.4974 4.02214 2.78906 3.51172 3.17188C3.01953 3.55469 2.64583 4.0651 2.39062 4.70312C2.13542 5.32292 2.0625 5.97005 2.17188 6.64453C2.1901 6.82682 2.25391 7.01823 2.36328 7.21875C2.47266 7.40104 2.5638 7.55599 2.63672 7.68359C2.72786 7.8112 2.77344 7.99349 2.77344 8.23047C2.77344 8.44922 2.69141 8.69531 2.52734 8.96875Z" fill="#086AD7"/>
</svg>
