<svg width="644" height="425" viewBox="0 0 644 425" fill="none" xmlns="http://www.w3.org/2000/svg">
<path d="M25.9209 408.419C25.5394 406.361 19.781 405.682 13.0591 406.903C6.33724 408.125 1.19729 410.783 1.57874 412.842C1.96018 414.901 7.71858 415.58 14.4405 414.358C21.1624 413.137 26.3023 410.478 25.9209 408.419Z" fill="#FC8795"/>
<path d="M16.7972 422.567C14.7703 423.087 11.7319 418.145 10.0106 411.53C8.28942 404.914 8.53723 399.13 10.5641 398.61C12.591 398.09 15.6295 403.031 17.3507 409.647C19.0719 416.262 18.8241 422.047 16.7972 422.567Z" fill="#FC8795"/>
<path d="M623.18 1.82712C620.725 2.50705 620.511 9.55922 622.701 17.5786C624.892 25.5979 628.659 31.5477 631.114 30.8678C633.569 30.1878 633.783 23.1357 631.593 15.1163C629.402 7.09697 625.636 1.14719 623.18 1.82712Z" fill="#F78EA1"/>
<path d="M641.294 11.3921C642.139 13.7942 636.47 17.9996 628.632 20.7851C620.795 23.5707 613.756 23.8815 612.912 21.4794C612.067 19.0773 617.736 14.8719 625.574 12.0863C633.411 9.30081 640.449 8.98997 641.294 11.3921Z" fill="#F78EA1"/>
</svg>
