<svg width="2224" height="2114" viewBox="0 0 2224 2114" fill="none" xmlns="http://www.w3.org/2000/svg">
<path d="M216.423 1713.6C209.34 1667.23 226.364 1623.47 255.66 1587.46C285.363 1550.96 327.785 1522.29 370.952 1506.7L371.631 1508.58L370.953 1506.7C431.884 1484.71 498.541 1479.43 562.682 1474.35L562.739 1474.34L562.978 1474.33C594.814 1471.8 627.643 1469.19 659.696 1464.6C695.672 1459.46 745.661 1448.63 792.953 1425.93C840.242 1403.23 884.699 1368.72 909.867 1316.27C933.155 1267.74 934.614 1217.32 925.225 1166.21C915.827 1115.06 895.593 1063.37 875.607 1012.33L875.539 1012.16C857.753 966.727 839.599 920.357 829.19 874.354C818.763 828.271 816.068 782.406 829.355 738.038C849.835 669.649 903.204 622.036 969.802 593.753C1036.39 565.475 1116.37 556.434 1190.52 565.246C1190.52 565.247 1190.52 565.247 1190.52 565.247L1190.28 567.233C1250.98 574.338 1311.97 589.665 1370.94 604.496L216.423 1713.6ZM216.423 1713.6L198.804 1716.54L216.423 1713.6Z" fill="#086AD7" fill-opacity="0.02" stroke="#F8F8F8" stroke-width="4"/>
<path d="M252.79 1692.14C176.373 1673.56 102.479 1646.55 33.6554 1621.39L36.1574 1614.54C160.003 1659.81 300.353 1711.14 441.487 1707.91C596.952 1704.37 731.381 1627.69 783.938 1512.52C829.016 1413.77 812.302 1300.18 796.148 1190.33C779.51 1077.26 762.313 960.336 812.117 858.824C867.095 746.781 1004.14 672.27 1161.22 668.999C1275.57 666.616 1388.51 696.484 1497.76 725.344C1521.21 731.545 1544.66 737.743 1568.09 743.627C1693.74 775.197 1840.4 801.578 1974.34 758.043C2098.54 717.676 2216.11 593.162 2197.92 454.641L2205.14 453.689C2223.84 595.97 2103.61 723.692 1976.59 764.975C1840.89 809.081 1693.02 782.444 1566.3 750.697C1542.83 744.804 1519.38 738.603 1495.88 732.393C1387.14 703.64 1274.68 673.918 1161.36 676.282C1044.13 678.731 884.014 728.839 818.651 862.043C769.84 961.519 786.867 1077.31 803.343 1189.28C819.662 1300.16 836.526 1414.85 790.556 1515.56C736.834 1633.24 599.869 1711.6 441.626 1715.21C377.936 1716.66 314.527 1707.15 252.777 1692.14L252.79 1692.14Z" fill="#086AD7" fill-opacity="0.02"/>
</svg>
