<svg width="15" height="12" viewBox="0 0 15 12" fill="none" xmlns="http://www.w3.org/2000/svg">
<path d="M13.6445 0.40625C13.4258 1.08073 13.0065 1.60938 12.3867 1.99219C12.9518 1.91927 13.4987 1.76432 14.0273 1.52734C13.6445 2.11068 13.1706 2.61198 12.6055 3.03125C12.6055 3.14062 12.6055 3.25911 12.6055 3.38672C12.6055 4.35286 12.4232 5.31901 12.0586 6.28516C11.694 7.23307 11.1745 8.10807 10.5 8.91016C9.84375 9.69401 8.98698 10.332 7.92969 10.8242C6.8724 11.3164 5.70573 11.5625 4.42969 11.5625C2.84375 11.5625 1.3763 11.1341 0.0273438 10.2773C0.264323 10.2956 0.492188 10.3047 0.710938 10.3047C2.04167 10.3047 3.22656 9.89453 4.26562 9.07422C3.64583 9.07422 3.08984 8.89193 2.59766 8.52734C2.1237 8.14453 1.78646 7.66146 1.58594 7.07812C1.76823 7.11458 1.95052 7.13281 2.13281 7.13281C2.38802 7.13281 2.64323 7.10547 2.89844 7.05078C2.22396 6.90495 1.66797 6.56771 1.23047 6.03906C0.811198 5.51042 0.601562 4.90885 0.601562 4.23438V4.17969C1.0026 4.41667 1.43099 4.53516 1.88672 4.53516C1.02995 3.97005 0.601562 3.17708 0.601562 2.15625C0.601562 1.6276 0.738281 1.14453 1.01172 0.707031C1.72266 1.60026 2.58854 2.3112 3.60938 2.83984C4.64844 3.36849 5.7513 3.66016 6.91797 3.71484C6.86328 3.49609 6.83594 3.27734 6.83594 3.05859C6.83594 2.27474 7.11849 1.60026 7.68359 1.03516C8.2487 0.470052 8.92318 0.1875 9.70703 0.1875C10.5456 0.1875 11.2474 0.488281 11.8125 1.08984C12.4688 0.96224 13.0794 0.734375 13.6445 0.40625Z" fill="#086AD7"/>
</svg>
