<svg width="16" height="14" viewBox="0 0 16 14" fill="none" xmlns="http://www.w3.org/2000/svg">
<path d="M9.03906 4.05859C9.22135 2.8737 9.85026 1.96224 10.9258 1.32422C11.9648 0.704427 12.9219 0.576823 13.7969 0.941406C14.7995 1.34245 15.1732 2.26302 14.918 3.70312C14.7357 4.72396 14.362 5.76302 13.7969 6.82031C13.2318 7.85938 12.5938 8.77083 11.8828 9.55469C11.1719 10.3385 10.5247 10.9948 9.94141 11.5234C9.35807 12.0339 8.86589 12.4258 8.46484 12.6992C8.02734 12.9909 7.60807 13.0729 7.20703 12.9453C6.80599 12.8177 6.45964 12.6263 6.16797 12.3711C5.89453 12.0977 5.67578 11.7878 5.51172 11.4414C5.36589 11.1315 4.96484 9.91927 4.30859 7.80469C3.67057 5.6901 3.27865 4.55078 3.13281 4.38672C3.0599 4.29557 2.95052 4.25 2.80469 4.25C2.67708 4.25 2.54948 4.27734 2.42188 4.33203C2.29427 4.38672 2.14844 4.45964 1.98438 4.55078C1.83854 4.64193 1.73828 4.70573 1.68359 4.74219C1.64714 4.77865 1.61068 4.80599 1.57422 4.82422L1 4.08594C0.981771 4.06771 1.19141 3.83073 1.62891 3.375C2.08464 2.90104 2.65885 2.39974 3.35156 1.87109C4.04427 1.32422 4.65495 0.996094 5.18359 0.886719C5.54818 0.813802 5.85807 0.86849 6.11328 1.05078C6.38672 1.21484 6.59635 1.4974 6.74219 1.89844C6.88802 2.29948 6.9974 2.69141 7.07031 3.07422C7.16146 3.45703 7.2526 3.92188 7.34375 4.46875C7.4349 5.01562 7.50781 5.42578 7.5625 5.69922C7.81771 6.70182 8.02734 7.42188 8.19141 7.85938C8.35547 8.27865 8.52865 8.48828 8.71094 8.48828C9.11198 8.48828 9.75911 7.64974 10.6523 5.97266C10.9076 5.44401 11.0078 4.97917 10.9531 4.57812C10.9167 4.17708 10.7161 3.91276 10.3516 3.78516C9.98698 3.65755 9.54948 3.7487 9.03906 4.05859Z" fill="white"/>
</svg>
