<svg width="137" height="191" viewBox="0 0 137 191" fill="none" xmlns="http://www.w3.org/2000/svg">
<path d="M164.505 156.615C164.486 156.797 164.468 156.977 164.449 157.157C163.607 165.379 162.908 172.207 161.483 177.499C160.029 182.899 157.848 186.586 154.097 188.519L154.097 188.519C148.439 191.434 141.876 190.089 135.916 186.77C129.962 183.456 124.721 178.229 121.795 173.605C118.938 169.09 117.1 163.935 116.411 158.634L116.411 158.634C116.027 155.677 116.244 152.744 116.491 149.759C116.502 149.631 116.512 149.502 116.523 149.373C116.76 146.528 117 143.633 116.714 140.71C116.193 135.373 114.337 129.944 110.519 126.067C106.135 121.613 100.206 120.385 94.5443 119.211C93.8172 119.06 93.0944 118.911 92.3799 118.755C86.0452 117.375 80.2913 115.549 77.0867 108.947L76.6369 109.165L77.0867 108.947C74.6012 103.827 75.0934 97.742 76.2133 92.001C76.4552 90.7608 76.7732 89.4176 77.1091 87.9989C77.2117 87.5655 77.316 87.125 77.4203 86.6783C77.8641 84.777 78.305 82.7742 78.6015 80.7711C79.1921 76.7805 79.2239 72.7029 77.4847 69.3698C76.0475 66.6155 73.5787 65.4071 70.9086 64.8624C68.866 64.4457 66.6405 64.4072 64.616 64.3721C64.0228 64.3619 63.4469 64.3519 62.8979 64.3328L62.8979 64.3328C56.33 64.1052 50.1492 63.0183 44.9984 58.8351C43.3052 57.4591 39.6115 54.368 38.2868 49.3799C37.588 46.7471 37.7293 43.2741 38.2088 40.559C38.8806 36.7513 39.4353 32.7813 38.792 28.8395C38.2476 25.5 36.7075 22.1448 34.1065 19.8442C31.9528 17.9392 28.8985 16.9855 26.2583 16.1612C26.0062 16.0825 25.758 16.005 25.5146 15.9279L25.3637 16.4046L25.5145 15.9279C23.6148 15.3269 21.6551 14.8111 19.7047 14.2979C18.6027 14.0079 17.5037 13.7187 16.4201 13.4153C13.3982 12.5692 10.452 11.6023 7.72013 10.1729C5.21504 8.86161 2.94348 7.05422 1.95367 4.45587C0.799205 1.42525 0.835911 -3.89352 8.33053 -13.3419L8.35294 -13.3666C8.37492 -13.3907 8.40831 -13.4269 8.45265 -13.4743C8.54135 -13.5689 8.67387 -13.7078 8.84662 -13.8818C9.19221 -14.23 9.69825 -14.7183 10.3362 -15.2747C11.6143 -16.3893 13.4112 -17.7678 15.4996 -18.8424L15.2708 -19.287L15.4996 -18.8424C16.3071 -19.258 17.6291 -19.684 19.4358 -20.0932C21.2333 -20.5003 23.4795 -20.8839 26.1153 -21.226C31.3863 -21.91 38.1939 -22.4248 46.0451 -22.6314C61.7478 -23.0445 81.6014 -22.224 101.652 -19.0685C121.706 -15.9124 141.931 -10.4245 158.392 -1.51865C174.851 7.38618 187.507 19.6832 192.52 36.4466C197.073 51.6694 192.659 61.6083 185.862 76.9146C185.631 77.4328 185.399 77.9572 185.163 78.4881C177.975 94.7042 168.571 116.878 164.505 156.615ZM164.505 156.615L165.002 156.666L164.505 156.615Z" fill="url(#paint0_linear_256_23)" stroke="url(#paint1_linear_256_23)"/>
<defs>
<linearGradient id="paint0_linear_256_23" x1="133.425" y1="177.264" x2="-8.53143" y2="6.08976" gradientUnits="userSpaceOnUse">
<stop stop-color="#E34C65"/>
<stop offset="1" stop-color="#692CA9"/>
</linearGradient>
<linearGradient id="paint1_linear_256_23" x1="146.715" y1="265.878" x2="59.9387" y2="-299.212" gradientUnits="userSpaceOnUse">
<stop stop-color="#AD0757"/>
<stop offset="1" stop-color="#5417D7" stop-opacity="0.78"/>
</linearGradient>
</defs>
</svg>
